<svg width="27" height="17" viewBox="0 0 27 17" fill="none" xmlns="http://www.w3.org/2000/svg">
<path d="M24.9342 4.75906L18.9889 8.22938L26.949 13.9656V1.25C26.949 2.68925 26.1768 4.0338 24.9342 4.75906Z" fill="#53C07E"/>
<path d="M7.67036 3.97627L15.3837 8.47854C15.5912 8.59978 15.8284 8.66395 16.0691 8.66395H16.0788C16.3196 8.66395 16.5567 8.59978 16.7638 8.47876L17.9189 7.80452C17.9216 7.80289 17.9241 7.80153 17.9267 7.79998L24.4776 3.97627C25.4431 3.41274 26.0427 2.36821 26.0427 1.25V0.796875H6.10522V1.25C6.10522 2.36821 6.70482 3.41274 7.67036 3.97627Z" fill="#53C07E"/>
<path d="M13.1593 8.22811L7.21425 4.75718C5.97269 4.03219 5.19784 2.69093 5.19784 1.25V6.23438H2.68201C2.43155 6.23438 2.22888 6.43726 2.22888 6.6875C2.22888 6.93774 2.43155 7.14063 2.68201 7.14063H5.19784H6.92651H8.28816C9.03582 7.14063 9.64753 7.75233 9.64753 8.5C9.64753 9.24764 9.03582 9.85938 8.28816 9.85938H7.83276H5.19784H2.22888C1.97842 9.85938 1.77576 10.0623 1.77576 10.3125C1.77576 10.5627 1.97842 10.7656 2.22888 10.7656H5.19784V13.9647L13.1593 8.22811Z" fill="#53C07E"/>
<path d="M17.2209 9.26132C16.8754 9.46332 16.4802 9.57018 16.0788 9.57018C16.0788 9.57018 16.0731 9.57018 16.0726 9.57018C15.6678 9.57018 15.2726 9.46332 14.9266 9.2611L14.0156 8.72937L5.19897 15.0831V15.75C5.19897 16.0002 5.40164 16.2031 5.6521 16.2031H26.4958C26.7463 16.2031 26.949 16.0002 26.949 15.75V15.0831L18.1322 8.72943L17.2209 9.26132Z" fill="#53C07E"/>
<path d="M8.73901 8.5C8.73901 8.24976 8.53635 8.04688 8.28589 8.04688H1.06421C0.813751 8.04688 0.611084 8.24976 0.611084 8.5C0.611084 8.75024 0.813751 8.95312 1.06421 8.95312H8.28589C8.53635 8.95312 8.73901 8.75024 8.73901 8.5Z" fill="#53C07E"/>
</svg>
